<svg width="72" height="72" viewBox="0 0 72 72" fill="none" xmlns="http://www.w3.org/2000/svg">
<path d="M36 6C52.569 6 66 19.431 66 36V47.292C66 48.4065 65.6895 49.4989 65.1035 50.4469C64.5174 51.3948 63.6789 52.1608 62.682 52.659L54 57V60C54.0001 62.2956 53.123 64.5045 51.5481 66.1748C49.9733 67.845 47.8197 68.8503 45.528 68.985L44.85 69C44.916 68.679 44.961 68.346 44.982 68.01L45 67.5V66C44.9997 64.4868 44.4277 63.0296 43.3985 61.9203C42.3693 60.8109 40.9589 60.1315 39.45 60.018L39 60H33C31.4863 59.9995 30.0283 60.5712 28.9184 61.6005C27.8084 62.6298 27.1285 64.0405 27.015 65.55L27 66V67.5C27 68.013 27.051 68.517 27.15 69H27C24.6131 69 22.3239 68.0518 20.636 66.364C18.9482 64.6761 18 62.3869 18 60V57L9.318 52.659C8.3206 52.1606 7.48181 51.3941 6.89574 50.4456C6.30966 49.4971 5.99948 48.404 6 47.289V36C6 19.431 19.431 6 36 6ZM24 33C22.4087 33 20.8826 33.6321 19.7574 34.7574C18.6321 35.8826 18 37.4087 18 39C18 40.5913 18.6321 42.1174 19.7574 43.2426C20.8826 44.3679 22.4087 45 24 45C25.5913 45 27.1174 44.3679 28.2426 43.2426C29.3679 42.1174 30 40.5913 30 39C30 37.4087 29.3679 35.8826 28.2426 34.7574C27.1174 33.6321 25.5913 33 24 33ZM48 33C46.4087 33 44.8826 33.6321 43.7574 34.7574C42.6321 35.8826 42 37.4087 42 39C42 40.5913 42.6321 42.1174 43.7574 43.2426C44.8826 44.3679 46.4087 45 48 45C49.5913 45 51.1174 44.3679 52.2426 43.2426C53.3679 42.1174 54 40.5913 54 39C54 37.4087 53.3679 35.8826 52.2426 34.7574C51.1174 33.6321 49.5913 33 48 33Z" fill="white"/>
</svg>
