<?xml version="1.0" encoding="utf-8"?>
<!-- Generator: Adobe Illustrator 24.1.0, SVG Export Plug-In . SVG Version: 6.00 Build 0)  -->
<svg version="1.1" id="Layer_1" xmlns="http://www.w3.org/2000/svg" xmlns:xlink="http://www.w3.org/1999/xlink" x="0px" y="0px"
	 viewBox="0 0 304 304" style="enable-background:new 0 0 304 304;" xml:space="preserve">
<style type="text/css">
	.st0{filter:url(#Adobe_OpacityMaskFilter);}
	.st1{mask:url(#SVGID_1_);fill:#1A1A1B;}
</style>
<g id="Layer_2">
	<defs>
		<filter id="Adobe_OpacityMaskFilter" filterUnits="userSpaceOnUse" x="0" y="0" width="304" height="304">
			<feFlood  style="flood-color:white;flood-opacity:1" result="back"/>
			<feBlend  in="SourceGraphic" in2="back" mode="normal"/>
		</filter>
	</defs>
	<mask maskUnits="userSpaceOnUse" x="0" y="0" width="304" height="304" id="SVGID_1_">
		<g class="st0">
			<path d="M44.1,224c0.6-2.7,3.2-4.5,5.9-3.9c2.7,0.6,4.5,3.2,3.9,5.9s-3.2,4.5-5.9,3.9c-2-0.4-3.5-1.9-3.9-3.9H0v-2H44.1z
				 M204.1,272c0.6-2.7,3.2-4.5,5.9-3.9c2.7,0.6,4.5,3.2,3.9,5.9c-0.6,2.7-3.2,4.5-5.9,3.9c-2-0.4-3.5-1.9-3.9-3.9H82v-2H204.1z
				 M261.9,226c-0.6,2.7-3.2,4.5-5.9,3.9c-2.7-0.6-4.5-3.2-3.9-5.9c0.6-2.7,3.2-4.5,5.9-3.9c2,0.4,3.5,1.9,3.9,3.9H304v2H261.9z
				 M261.9,242c-0.6,2.7-3.2,4.5-5.9,3.9c-2.7-0.6-4.5-3.2-3.9-5.9c0.6-2.7,3.2-4.5,5.9-3.9c2,0.4,3.5,1.9,3.9,3.9H304v2H261.9z
				 M268.1,128c0.6-2.7,3.2-4.5,5.9-3.9s4.5,3.2,3.9,5.9c-0.6,2.7-3.2,4.5-5.9,3.9c-2-0.4-3.5-1.9-3.9-3.9h-86.2
				c-0.6,2.7-3.2,4.5-5.9,3.9c-2.7-0.6-4.5-3.2-3.9-5.9c0.6-2.7,3.2-4.5,5.9-3.9c2,0.4,3.5,1.9,3.9,3.9H268.1z M12.1,80
				c0.6-2.7,3.2-4.5,5.9-3.9s4.5,3.2,3.9,5.9c-0.6,2.7-3.2,4.5-5.9,3.9c-2-0.4-3.5-1.9-3.9-3.9H0v-2C0,80,12.1,80,12.1,80z
				 M197.9,114c-0.6,2.7-3.2,4.5-5.9,3.9c-2.7-0.6-4.5-3.2-3.9-5.9c0.6-2.7,3.2-4.5,5.9-3.9c2,0.4,3.5,1.9,3.9,3.9h86.2
				c0.6-2.7,3.2-4.5,5.9-3.9s4.5,3.2,3.9,5.9c-0.6,2.7-3.2,4.5-5.9,3.9c-2-0.4-3.5-1.9-3.9-3.9H197.9z M258,12.1
				c2.7,0.6,4.5,3.2,3.9,5.9c-0.6,2.7-3.2,4.5-5.9,3.9c-2.7-0.6-4.5-3.2-3.9-5.9c0.4-2,1.9-3.5,3.9-3.9V0h2V12.1z M194,220.1
				c2.7,0.6,4.5,3.2,3.9,5.9c-0.6,2.7-3.2,4.5-5.9,3.9c-2.7-0.6-4.5-3.2-3.9-5.9c0.4-2,1.9-3.5,3.9-3.9v-54.2
				c-2.7-0.6-4.5-3.2-3.9-5.9c0.6-2.7,3.2-4.5,5.9-3.9c2.7,0.6,4.5,3.2,3.9,5.9c-0.4,2-1.9,3.5-3.9,3.9V220.1z M242,21.9V80h62v2
				h-64V21.9c-2.7-0.6-4.5-3.2-3.9-5.9c0.6-2.7,3.2-4.5,5.9-3.9c2.7,0.6,4.5,3.2,3.9,5.9C245.5,20,244,21.5,242,21.9z M258,37.9V64
				h46v2h-48V37.9c-2.7-0.6-4.5-3.2-3.9-5.9c0.6-2.7,3.2-4.5,5.9-3.9c2.7,0.6,4.5,3.2,3.9,5.9C261.5,36,260,37.5,258,37.9z
				 M130,133.9V208h16v12.1c2.7,0.6,4.5,3.2,3.9,5.9c-0.6,2.7-3.2,4.5-5.9,3.9c-2.7-0.6-4.5-3.2-3.9-5.9c0.4-2,1.9-3.5,3.9-3.9V210
				h-16v-76.1c-2.7-0.6-4.5-3.2-3.9-5.9c0.6-2.7,3.2-4.5,5.9-3.9c2.7,0.6,4.5,3.2,3.9,5.9C133.5,132,132,133.5,130,133.9L130,133.9z
				 M124.1,112c0.6-2.7,3.2-4.5,5.9-3.9c2.7,0.6,4.5,3.2,3.9,5.9c-0.6,2.7-3.2,4.5-5.9,3.9c-2-0.4-3.5-1.9-3.9-3.9H114v48H85.9
				c-0.6,2.7-3.2,4.5-5.9,3.9c-2.7-0.6-4.5-3.2-3.9-5.9s3.2-4.5,5.9-3.9c2,0.4,3.5,1.9,3.9,3.9H112v-48C112,112,124.1,112,124.1,112
				z M117.9,242c-0.6,2.7-3.2,4.5-5.9,3.9c-2.7-0.6-4.5-3.2-3.9-5.9s3.2-4.5,5.9-3.9c2,0.4,3.5,1.9,3.9,3.9H176v-74.1
				c-2.7-0.6-4.5-3.2-3.9-5.9c0.6-2.7,3.2-4.5,5.9-3.9c2.7,0.6,4.5,3.2,3.9,5.9c-0.4,2-1.9,3.5-3.9,3.9V242H117.9z M101.9,178
				c-0.6,2.7-3.2,4.5-5.9,3.9c-2.7-0.6-4.5-3.2-3.9-5.9s3.2-4.5,5.9-3.9c2,0.4,3.5,1.9,3.9,3.9H114v48h10.1c0.6-2.7,3.2-4.5,5.9-3.9
				c2.7,0.6,4.5,3.2,3.9,5.9c-0.6,2.7-3.2,4.5-5.9,3.9c-2-0.4-3.5-1.9-3.9-3.9H112v-48H101.9z M66,284.1c2.7,0.6,4.5,3.2,3.9,5.9
				s-3.2,4.5-5.9,3.9c-2.7-0.6-4.5-3.2-3.9-5.9c0.4-2,1.9-3.5,3.9-3.9V274H50v30h-2v-32h18V284.1z M236.1,176
				c0.6-2.7,3.2-4.5,5.9-3.9c2.7,0.6,4.5,3.2,3.9,5.9c-0.6,2.7-3.2,4.5-5.9,3.9c-2-0.4-3.5-1.9-3.9-3.9H226v94h48v32h-2v-30h-48v-98
				H236.1z M261.9,146c-0.6,2.7-3.2,4.5-5.9,3.9c-2.7-0.6-4.5-3.2-3.9-5.9c0.6-2.7,3.2-4.5,5.9-3.9c2,0.4,3.5,1.9,3.9,3.9H274v44.1
				c2.7,0.6,4.5,3.2,3.9,5.9c-0.6,2.7-3.2,4.5-5.9,3.9c-2.7-0.6-4.5-3.2-3.9-5.9c0.4-2,1.9-3.5,3.9-3.9V146H261.9z M197.9,242
				c-0.6,2.7-3.2,4.5-5.9,3.9c-2.7-0.6-4.5-3.2-3.9-5.9c0.6-2.7,3.2-4.5,5.9-3.9c2,0.4,3.5,1.9,3.9,3.9H208v-80h16v-14h-42.1
				c-0.6,2.7-3.2,4.5-5.9,3.9c-2.7-0.6-4.5-3.2-3.9-5.9c0.6-2.7,3.2-4.5,5.9-3.9c2,0.4,3.5,1.9,3.9,3.9H226v18h-16v80H197.9z
				 M284.1,32c0.6-2.7,3.2-4.5,5.9-3.9s4.5,3.2,3.9,5.9c-0.6,2.7-3.2,4.5-5.9,3.9c-2-0.4-3.5-1.9-3.9-3.9H272V0h2v32H284.1L284.1,32
				z M98,101.9V146H53.9c-0.6,2.7-3.2,4.5-5.9,3.9c-2.7-0.6-4.5-3.2-3.9-5.9s3.2-4.5,5.9-3.9c2,0.4,3.5,1.9,3.9,3.9H96v-42.1
				c-2.7-0.6-4.5-3.2-3.9-5.9s3.2-4.5,5.9-3.9s4.5,3.2,3.9,5.9C101.5,100,100,101.5,98,101.9z M53.9,34c-0.6,2.7-3.2,4.5-5.9,3.9
				s-4.5-3.2-3.9-5.9s3.2-4.5,5.9-3.9c2,0.4,3.5,1.9,3.9,3.9H80V0h2v34H53.9z M114,37.9V66H82v64H69.9c-0.6,2.7-3.2,4.5-5.9,3.9
				c-2.7-0.6-4.5-3.2-3.9-5.9c0.6-2.7,3.2-4.5,5.9-3.9c2,0.4,3.5,1.9,3.9,3.9H80V64h32V37.9c-2.7-0.6-4.5-3.2-3.9-5.9
				s3.2-4.5,5.9-3.9c2.7,0.6,4.5,3.2,3.9,5.9C117.5,36,116,37.5,114,37.9z M101.9,82c-0.6,2.7-3.2,4.5-5.9,3.9s-4.5-3.2-3.9-5.9
				s3.2-4.5,5.9-3.9c2,0.4,3.5,1.9,3.9,3.9H128V37.9c-2.7-0.6-4.5-3.2-3.9-5.9s3.2-4.5,5.9-3.9c2.7,0.6,4.5,3.2,3.9,5.9
				c-0.4,2-1.9,3.5-3.9,3.9V82H101.9z M117.9,18c-0.6,2.7-3.2,4.5-5.9,3.9s-4.5-3.2-3.9-5.9s3.2-4.5,5.9-3.9c2,0.4,3.5,1.9,3.9,3.9
				H146v44.1c2.7,0.6,4.5,3.2,3.9,5.9c-0.6,2.7-3.2,4.5-5.9,3.9s-4.5-3.2-3.9-5.9c0.4-2,1.9-3.5,3.9-3.9V18H117.9z M220.1,288
				c0.6-2.7,3.2-4.5,5.9-3.9c2.7,0.6,4.5,3.2,3.9,5.9c-0.6,2.7-3.2,4.5-5.9,3.9c-2-0.4-3.5-1.9-3.9-3.9H98v14h-2v-16H220.1z
				 M242,149.9V160h16v34h-16v62h48v48h-2v-46h-48v-66h16v-30h-16v-12.1c-2.7-0.6-4.5-3.2-3.9-5.9c0.6-2.7,3.2-4.5,5.9-3.9
				c2.7,0.6,4.5,3.2,3.9,5.9C245.5,148,244,149.5,242,149.9z M53.9,18c-0.6,2.7-3.2,4.5-5.9,3.9s-4.5-3.2-3.9-5.9s3.2-4.5,5.9-3.9
				c2,0.4,3.5,1.9,3.9,3.9H64V2H48V0h18v18H53.9z M165.9,50c-0.6,2.7-3.2,4.5-5.9,3.9c-2.7-0.6-4.5-3.2-3.9-5.9
				c0.6-2.7,3.2-4.5,5.9-3.9c2,0.4,3.5,1.9,3.9,3.9H192V0h50v2h-48v48H165.9z M117.9,2c-0.6,2.7-3.2,4.5-5.9,3.9s-4.5-3.2-3.9-5.9
				h2.1c-0.5,1.6,0.3,3.3,1.8,3.8s3.3-0.3,3.8-1.8c0.2-0.6,0.2-1.3,0-2H178v34h-18V21.9c-2.7-0.6-4.5-3.2-3.9-5.9
				c0.6-2.7,3.2-4.5,5.9-3.9c2.7,0.6,4.5,3.2,3.9,5.9c-0.4,2-1.9,3.5-3.9,3.9V32h14V2C176,2,117.9,2,117.9,2z M117.9,98
				c-0.6,2.7-3.2,4.5-5.9,3.9s-4.5-3.2-3.9-5.9s3.2-4.5,5.9-3.9c2,0.4,3.5,1.9,3.9,3.9H137l32-32h39V21.9c-2.7-0.6-4.5-3.2-3.9-5.9
				c0.6-2.7,3.2-4.5,5.9-3.9c2.7,0.6,4.5,3.2,3.9,5.9c-0.4,2-1.9,3.5-3.9,3.9V66h-40.2l-32,32C137.8,98,117.9,98,117.9,98z
				 M146,188.1c2.7,0.6,4.5,3.2,3.9,5.9c-0.6,2.7-3.2,4.5-5.9,3.9c-2.7-0.6-4.5-3.2-3.9-5.9c0.4-2,1.9-3.5,3.9-3.9v-76.5L175.6,80
				H224V21.9c-2.7-0.6-4.5-3.2-3.9-5.9c0.6-2.7,3.2-4.5,5.9-3.9c2.7,0.6,4.5,3.2,3.9,5.9c-0.4,2-1.9,3.5-3.9,3.9V82h-49.6L146,112.4
				V188.1z M162,220.1c2.7,0.6,4.5,3.2,3.9,5.9c-0.6,2.7-3.2,4.5-5.9,3.9c-2.7-0.6-4.5-3.2-3.9-5.9c0.4-2,1.9-3.5,3.9-3.9v-99.5
				L184.6,96h115.5c0.4-2,1.9-3.5,3.9-3.9v2.1c-1.6,0.5-2.4,2.3-1.8,3.8c0.3,0.9,1,1.5,1.8,1.8v2.1c-2-0.4-3.5-1.9-3.9-3.9H185.4
				L162,121.4V220.1z M18,156.1c2.7,0.6,4.5,3.2,3.9,5.9c-0.6,2.7-3.2,4.5-5.9,3.9c-2.7-0.6-4.5-3.2-3.9-5.9c0.4-2,1.9-3.5,3.9-3.9
				v-3.5l48-48V48h32V0h2v50H66v55.4l-48,48V156.1z M50,53.9v43.5l-48,48V208h26.1c0.6-2.7,3.2-4.5,5.9-3.9c2.7,0.6,4.5,3.2,3.9,5.9
				s-3.2,4.5-5.9,3.9c-2-0.4-3.5-1.9-3.9-3.9H0v-65.4l48-48V53.9c-2.7-0.6-4.5-3.2-3.9-5.9s3.2-4.5,5.9-3.9s4.5,3.2,3.9,5.9
				C53.5,52,52,53.5,50,53.9z M34,69.9v19.5l-34,34v-2.8l32-32V69.9c-2.7-0.6-4.5-3.2-3.9-5.9c0.6-2.7,3.2-4.5,5.9-3.9
				s4.5,3.2,3.9,5.9C37.5,68,36,69.5,34,69.9z M12.1,32c0.6-2.7,3.2-4.5,5.9-3.9s4.5,3.2,3.9,5.9c-0.6,2.7-3.2,4.5-5.9,3.9
				c-2-0.4-3.5-1.9-3.9-3.9H9.4L0,43.4v-2.8L8.6,32H12.1z M277.9,50c-0.6,2.7-3.2,4.5-5.9,3.9s-4.5-3.2-3.9-5.9
				c0.6-2.7,3.2-4.5,5.9-3.9c2,0.4,3.5,1.9,3.9,3.9h18.7l7.4-7.4v2.8l-6.6,6.6H277.9z M261.9,210c-0.6,2.7-3.2,4.5-5.9,3.9
				c-2.7-0.6-4.5-3.2-3.9-5.9c0.6-2.7,3.2-4.5,5.9-3.9c2,0.4,3.5,1.9,3.9,3.9H288v-71.4l16-16v2.8l-14,14V210H261.9z M53.9,242
				c-0.6,2.7-3.2,4.5-5.9,3.9c-2.7-0.6-4.5-3.2-3.9-5.9s3.2-4.5,5.9-3.9c2,0.4,3.5,1.9,3.9,3.9H64v-22.6L40.6,194H21.9
				c-0.6,2.7-3.2,4.5-5.9,3.9c-2.7-0.6-4.5-3.2-3.9-5.9c0.6-2.7,3.2-4.5,5.9-3.9c2,0.4,3.5,1.9,3.9,3.9h19.5L66,216.6V242
				C66,242,53.9,242,53.9,242z M204.1,256c0.6-2.7,3.2-4.5,5.9-3.9c2.7,0.6,4.5,3.2,3.9,5.9c-0.6,2.7-3.2,4.5-5.9,3.9
				c-2-0.4-3.5-1.9-3.9-3.9H96v-56.6L56.6,162H37.9c-0.6,2.7-3.2,4.5-5.9,3.9c-2.7-0.6-4.5-3.2-3.9-5.9c0.6-2.7,3.2-4.5,5.9-3.9
				c2,0.4,3.5,1.9,3.9,3.9h19.5L98,200.6V256H204.1L204.1,256z M53.9,258c-0.6,2.7-3.2,4.5-5.9,3.9c-2.7-0.6-4.5-3.2-3.9-5.9
				s3.2-4.5,5.9-3.9c2,0.4,3.5,1.9,3.9,3.9H80v-46.6L48.6,178H21.9c-0.6,2.7-3.2,4.5-5.9,3.9c-2.7-0.6-4.5-3.2-3.9-5.9
				c0.6-2.7,3.2-4.5,5.9-3.9c2,0.4,3.5,1.9,3.9,3.9h27.5L82,208.6V258C82,258,53.9,258,53.9,258z M34,39.8v1.6L9.4,66H0v-2h8.6
				L32,40.6V0h2V39.8z M2,300.1c2,0.4,3.5,1.9,3.9,3.9H3.8c-0.6-1.6-2.3-2.4-3.8-1.8c0,0,0,0,0,0V256h18v48h-2v-46H2V300.1z M34,241
				v63h-2v-62H0v-2h34V241z M17,18H0v-2h16V0h2v18H17z M290,16h14v2h-16V0h2V16z M258,289v15h-2v-14h-14v14h-2v-16h18V289z M0,92.1
				c2.7-0.5,5.4,1.2,5.9,3.9C6,96.4,6,96.7,6,97c0,2.8-2.2,5-5,5c-0.3,0-0.7,0-1-0.1v-2.1c1.6,0.5,3.3-0.3,3.8-1.8S3.6,94.7,2,94.2
				c-0.6-0.2-1.3-0.2-2,0V92.1z M80,272h2v32h-2V272z M117.9,304h-2.1c-0.5-1.6-2.3-2.4-3.8-1.8c-0.9,0.3-1.5,1-1.8,1.8h-2.1
				c0.5-2.7,3.2-4.5,5.9-3.9C116,300.5,117.5,302,117.9,304z M5.9,0C6.4,2.7,4.7,5.4,2,5.9C1.3,6,0.6,6,0,5.9V3.8
				C1.6,4.4,3.3,3.6,3.8,2c0.2-0.6,0.2-1.4,0-2H5.9z M300.1,0h2.1c-0.6,1.6,0.3,3.3,1.8,3.8c0,0,0,0,0,0v2.1
				C301.3,5.3,299.5,2.7,300.1,0C300.1,0,300.1,0,300.1,0z M304,300.1v2.1c-0.9,0.3-1.5,1-1.8,1.8h-2.1
				C300.5,302,302,300.5,304,300.1z M97,100c1.7,0,3-1.3,3-3s-1.3-3-3-3s-3,1.3-3,3S95.3,100,97,100z M97,84c1.7,0,3-1.3,3-3
				s-1.3-3-3-3s-3,1.3-3,3S95.3,84,97,84z M113,100c1.7,0,3-1.3,3-3s-1.3-3-3-3s-3,1.3-3,3S111.3,100,113,100z M129,116
				c1.7,0,3-1.3,3-3s-1.3-3-3-3c-1.7,0-3,1.3-3,3S127.3,116,129,116z M129,132c1.7,0,3-1.3,3-3c0-1.7-1.3-3-3-3c-1.7,0-3,1.3-3,3
				C126,130.7,127.3,132,129,132z M81,164c1.7,0,3-1.3,3-3s-1.3-3-3-3s-3,1.3-3,3S79.3,164,81,164z M97,180c1.7,0,3-1.3,3-3
				s-1.3-3-3-3s-3,1.3-3,3S95.3,180,97,180z M129,228c1.7,0,3-1.3,3-3s-1.3-3-3-3c-1.7,0-3,1.3-3,3S127.3,228,129,228z M113,244
				c1.7,0,3-1.3,3-3s-1.3-3-3-3s-3,1.3-3,3S111.3,244,113,244z M145,228c1.7,0,3-1.3,3-3s-1.3-3-3-3s-3,1.3-3,3S143.3,228,145,228z
				 M145,196c1.7,0,3-1.3,3-3s-1.3-3-3-3s-3,1.3-3,3S143.3,196,145,196z M161,228c1.7,0,3-1.3,3-3s-1.3-3-3-3s-3,1.3-3,3
				S159.3,228,161,228z M193,244c1.7,0,3-1.3,3-3s-1.3-3-3-3s-3,1.3-3,3S191.3,244,193,244z M193,228c1.7,0,3-1.3,3-3s-1.3-3-3-3
				s-3,1.3-3,3S191.3,228,193,228z M177,164c1.7,0,3-1.3,3-3s-1.3-3-3-3s-3,1.3-3,3S175.3,164,177,164z M193,164c1.7,0,3-1.3,3-3
				s-1.3-3-3-3s-3,1.3-3,3S191.3,164,193,164z M209,260c1.7,0,3-1.3,3-3s-1.3-3-3-3s-3,1.3-3,3S207.3,260,209,260z M209,276
				c1.7,0,3-1.3,3-3s-1.3-3-3-3s-3,1.3-3,3S207.3,276,209,276z M225,292c1.7,0,3-1.3,3-3s-1.3-3-3-3l0,0c-1.7,0-3,1.3-3,3
				S223.3,292,225,292z M241,148c1.7,0,3-1.3,3-3s-1.3-3-3-3s-3,1.3-3,3S239.3,148,241,148z M241,180c1.7,0,3-1.3,3-3s-1.3-3-3-3
				s-3,1.3-3,3S239.3,180,241,180z M257,148c1.7,0,3-1.3,3-3s-1.3-3-3-3s-3,1.3-3,3S255.3,148,257,148z M273,132c1.7,0,3-1.3,3-3
				c0-1.7-1.3-3-3-3s-3,1.3-3,3C270,130.7,271.3,132,273,132z M177,132c1.7,0,3-1.3,3-3c0-1.7-1.3-3-3-3s-3,1.3-3,3
				C174,130.7,175.3,132,177,132z M177,148c1.7,0,3-1.3,3-3s-1.3-3-3-3s-3,1.3-3,3S175.3,148,177,148z M193,116c1.7,0,3-1.3,3-3
				s-1.3-3-3-3s-3,1.3-3,3S191.3,116,193,116z M289,116c1.7,0,3-1.3,3-3s-1.3-3-3-3s-3,1.3-3,3S287.3,116,289,116z M273,52
				c1.7,0,3-1.3,3-3s-1.3-3-3-3s-3,1.3-3,3S271.3,52,273,52z M289,36c1.7,0,3-1.3,3-3c0-1.7-1.3-3-3-3s-3,1.3-3,3
				C286,34.7,287.3,36,289,36z M257,36c1.7,0,3-1.3,3-3c0-1.7-1.3-3-3-3s-3,1.3-3,3C254,34.7,255.3,36,257,36z M257,20
				c1.7,0,3-1.3,3-3s-1.3-3-3-3s-3,1.3-3,3S255.3,20,257,20z M241,20c1.7,0,3-1.3,3-3s-1.3-3-3-3s-3,1.3-3,3S239.3,20,241,20z
				 M225,20c1.7,0,3-1.3,3-3s-1.3-3-3-3l0,0c-1.7,0-3,1.3-3,3S223.3,20,225,20z M209,20c1.7,0,3-1.3,3-3s-1.3-3-3-3s-3,1.3-3,3
				S207.3,20,209,20z M49,36c1.7,0,3-1.3,3-3c0-1.7-1.3-3-3-3s-3,1.3-3,3C46,34.7,47.3,36,49,36z M17,36c1.7,0,3-1.3,3-3
				c0-1.7-1.3-3-3-3s-3,1.3-3,3C14,34.7,15.3,36,17,36z M49,52c1.7,0,3-1.3,3-3s-1.3-3-3-3s-3,1.3-3,3S47.3,52,49,52z M33,68
				c1.7,0,3-1.3,3-3s-1.3-3-3-3c-1.7,0-3,1.3-3,3S31.3,68,33,68z M49,20c1.7,0,3-1.3,3-3s-1.3-3-3-3s-3,1.3-3,3S47.3,20,49,20z
				 M49,260c1.7,0,3-1.3,3-3s-1.3-3-3-3s-3,1.3-3,3S47.3,260,49,260z M65,292c1.7,0,3-1.3,3-3s-1.3-3-3-3s-3,1.3-3,3
				S63.3,292,65,292z M49,228c1.7,0,3-1.3,3-3s-1.3-3-3-3s-3,1.3-3,3S47.3,228,49,228z M49,244c1.7,0,3-1.3,3-3s-1.3-3-3-3
				s-3,1.3-3,3S47.3,244,49,244z M33,212c1.7,0,3-1.3,3-3s-1.3-3-3-3c-1.7,0-3,1.3-3,3S31.3,212,33,212z M113,36c1.7,0,3-1.3,3-3
				c0-1.7-1.3-3-3-3s-3,1.3-3,3C110,34.7,111.3,36,113,36z M129,36c1.7,0,3-1.3,3-3c0-1.7-1.3-3-3-3c-1.7,0-3,1.3-3,3
				C126,34.7,127.3,36,129,36z M113,20c1.7,0,3-1.3,3-3s-1.3-3-3-3s-3,1.3-3,3S111.3,20,113,20z M145,68c1.7,0,3-1.3,3-3s-1.3-3-3-3
				s-3,1.3-3,3S143.3,68,145,68z M161,52c1.7,0,3-1.3,3-3s-1.3-3-3-3s-3,1.3-3,3S159.3,52,161,52z M161,20c1.7,0,3-1.3,3-3
				s-1.3-3-3-3s-3,1.3-3,3S159.3,20,161,20z M273,196c1.7,0,3-1.3,3-3s-1.3-3-3-3s-3,1.3-3,3S271.3,196,273,196z M257,212
				c1.7,0,3-1.3,3-3s-1.3-3-3-3s-3,1.3-3,3S255.3,212,257,212z M257,228c1.7,0,3-1.3,3-3s-1.3-3-3-3s-3,1.3-3,3S255.3,228,257,228z
				 M257,244c1.7,0,3-1.3,3-3s-1.3-3-3-3s-3,1.3-3,3S255.3,244,257,244z M17,180c1.7,0,3-1.3,3-3s-1.3-3-3-3s-3,1.3-3,3
				S15.3,180,17,180z M17,196c1.7,0,3-1.3,3-3s-1.3-3-3-3s-3,1.3-3,3S15.3,196,17,196z M17,164c1.7,0,3-1.3,3-3s-1.3-3-3-3
				s-3,1.3-3,3S15.3,164,17,164z M33,164c1.7,0,3-1.3,3-3s-1.3-3-3-3c-1.7,0-3,1.3-3,3S31.3,164,33,164z M17,84c1.7,0,3-1.3,3-3
				s-1.3-3-3-3s-3,1.3-3,3S15.3,84,17,84z M49,148c1.7,0,3-1.3,3-3s-1.3-3-3-3s-3,1.3-3,3S47.3,148,49,148z M65,132c1.7,0,3-1.3,3-3
				c0-1.7-1.3-3-3-3s-3,1.3-3,3C62,130.7,63.3,132,65,132z"/>
		</g>
	</mask>
	<rect y="0" class="st1" width="304" height="304"/>
</g>
</svg>
