<svg xmlns="http://www.w3.org/2000/svg" xmlns:xlink="http://www.w3.org/1999/xlink" viewBox="0 0 304 304"><defs><style>.cls-1{filter:url(#luminosity-noclip);}.cls-2{mask:url(#mask);}.cls-3{fill:#1a1a1b;}</style><filter id="luminosity-noclip" x="-0.14" y="-0.08" width="309.49" height="312.03" filterUnits="userSpaceOnUse" color-interpolation-filters="sRGB"><feFlood flood-color="#fff" result="bg"/><feBlend in="SourceGraphic" in2="bg"/></filter><mask id="mask" x="-0.14" y="-0.08" width="309.49" height="312.03" maskUnits="userSpaceOnUse"><path class="cls-1" d="M55.57,227.38a4.79,4.79,0,0,1,5.62-3.75,4.87,4.87,0,0,1,3.75,5.68,4.78,4.78,0,0,1-9.37,0H13.38v-1.93Zm153.08,46.16a4.79,4.79,0,0,1,5.62-3.76,4.88,4.88,0,0,1,3.75,5.69,4.78,4.78,0,0,1-9.37,0H91.83v-1.92ZM264,229.31a4.78,4.78,0,0,1-5.62,3.75,4.88,4.88,0,0,1-3.75-5.68,4.78,4.78,0,0,1,9.37,0h40.28v1.93Zm0,15.38a4.79,4.79,0,0,1-5.62,3.76,4.89,4.89,0,0,1-3.75-5.69,4.78,4.78,0,0,1,9.37,0h40.28v1.92Zm5.93-109.61a4.78,4.78,0,0,1,5.62-3.75,4.88,4.88,0,0,1,3.76,5.68,4.78,4.78,0,0,1-9.38,0H187.41a4.79,4.79,0,0,1-5.62,3.76,4.89,4.89,0,0,1-3.75-5.69,4.78,4.78,0,0,1,9.37,0ZM25,88.93a4.79,4.79,0,0,1,5.62-3.76,4.88,4.88,0,0,1,3.76,5.69,4.78,4.78,0,0,1-9.38,0H13.38V88.93Zm177.77,32.69a4.78,4.78,0,0,1-5.62,3.75,4.88,4.88,0,0,1-3.75-5.68,4.78,4.78,0,0,1,9.37,0h82.47a4.79,4.79,0,0,1,5.62-3.76,4.87,4.87,0,0,1,3.75,5.68,4.78,4.78,0,0,1-9.37,0Zm57.5-98a4.82,4.82,0,0,1,3.41,6.68,4.79,4.79,0,1,1-5.32-6.68V12h1.91ZM199,223.64a4.81,4.81,0,0,1,3.41,6.67,4.75,4.75,0,0,1-4.29,2.85,4.81,4.81,0,0,1-1-9.52V171.52a4.81,4.81,0,0,1-3.41-6.67A4.76,4.76,0,0,1,198,162a4.81,4.81,0,0,1,1,9.52ZM244.91,33.06V88.93h59.32v1.92H243V33.06a4.78,4.78,0,1,1,1.91,0Zm15.31,15.39V73.54h44v1.93H258.31v-27a4.82,4.82,0,0,1-3.42-6.68,4.79,4.79,0,1,1,5.33,6.68Zm-122.46,92.3V212h15.3v11.64a4.81,4.81,0,0,1,3.42,6.67,4.76,4.76,0,0,1-4.3,2.85,4.81,4.81,0,0,1-1-9.52v-9.72H135.84V140.75a4.81,4.81,0,0,1-3.41-6.67,4.75,4.75,0,0,1,4.29-2.85,4.81,4.81,0,0,1,1,9.52Zm-5.65-21a4.79,4.79,0,0,1,5.62-3.76,4.87,4.87,0,0,1,3.75,5.68,4.78,4.78,0,0,1-9.37,0h-9.66v46.15H95.56a4.79,4.79,0,0,1-5.62,3.76,4.89,4.89,0,0,1-3.75-5.69,4.78,4.78,0,0,1,9.37,0h25V119.7Zm-5.93,125a4.79,4.79,0,0,1-5.62,3.76,4.89,4.89,0,0,1-3.75-5.69,4.78,4.78,0,0,1,9.37,0h55.59V171.52a4.81,4.81,0,0,1-3.42-6.67,4.79,4.79,0,1,1,5.33,6.67v73.17Zm-15.31-61.53a4.79,4.79,0,0,1-5.62,3.75,4.88,4.88,0,0,1-3.75-5.68,4.78,4.78,0,0,1,9.37,0h11.58v46.15h9.66a4.79,4.79,0,0,1,5.62-3.75,4.87,4.87,0,0,1,3.75,5.68,4.78,4.78,0,0,1-9.37,0H120.53V183.16Zm-34.35,102a4.82,4.82,0,0,1,3.42,6.68,4.75,4.75,0,0,1-4.3,2.84,4.81,4.81,0,0,1-1-9.52v-9.71H61.22v28.85H59.3V273.54H76.52ZM239.27,181.23a4.78,4.78,0,0,1,5.62-3.75,4.88,4.88,0,0,1,3.75,5.68,4.78,4.78,0,0,1-9.37,0H229.6v90.38h45.93v30.77h-1.91V275.46H227.69V181.23ZM264,152.39a4.78,4.78,0,0,1-5.62,3.75,4.88,4.88,0,0,1-3.75-5.68,4.78,4.78,0,0,1,9.37,0h11.58v42.41a4.81,4.81,0,0,1,3.41,6.67,4.75,4.75,0,0,1-4.29,2.85,4.81,4.81,0,0,1-1-9.52V152.39Zm-61.23,92.3a4.79,4.79,0,0,1-5.62,3.76,4.89,4.89,0,0,1-3.75-5.69,4.78,4.78,0,0,1,9.37,0h9.66V165.85h15.31V152.39H187.41a4.78,4.78,0,0,1-5.62,3.75,4.88,4.88,0,0,1-3.75-5.68,4.78,4.78,0,0,1,9.37,0H229.6v17.31H214.3v76.92ZM285.19,42.77A4.79,4.79,0,0,1,290.81,39a4.87,4.87,0,0,1,3.75,5.68,4.78,4.78,0,0,1-9.37,0H273.62V12h1.91V42.77ZM107.14,110v42.41H65a4.78,4.78,0,0,1-5.62,3.75,4.89,4.89,0,0,1-3.76-5.68,4.78,4.78,0,0,1,9.38,0h40.28V110a4.81,4.81,0,0,1-3.42-6.67,4.76,4.76,0,0,1,4.3-2.85,4.81,4.81,0,0,1,1,9.52ZM65,44.7a4.78,4.78,0,0,1-5.62,3.75,4.89,4.89,0,0,1-3.76-5.68,4.78,4.78,0,0,1,9.38,0h25V12h1.91V44.7Zm57.5,3.75v27H91.83V137H80.26a4.79,4.79,0,0,1-5.62,3.76,4.89,4.89,0,0,1-3.76-5.69,4.78,4.78,0,0,1,9.38,0h9.66V73.54h30.61V48.45a4.78,4.78,0,1,1,1.92,0Zm-11.58,42.4a4.78,4.78,0,0,1-5.62,3.75,4.88,4.88,0,0,1-3.75-5.68,4.78,4.78,0,0,1,9.37,0h25V48.45a4.82,4.82,0,0,1-3.41-6.68,4.77,4.77,0,0,1,4.29-2.85,4.82,4.82,0,0,1,1,9.53v42.4Zm15.31-61.54a4.79,4.79,0,0,1-5.62,3.76,4.89,4.89,0,0,1-3.75-5.69,4.78,4.78,0,0,1,9.37,0h26.88v42.4a4.82,4.82,0,0,1,3.42,6.68,4.75,4.75,0,0,1-4.3,2.84,4.81,4.81,0,0,1-1-9.52V29.31ZM224,288.92a4.78,4.78,0,0,1,5.62-3.75,4.88,4.88,0,0,1,3.75,5.68,4.78,4.78,0,0,1-9.37,0H107.14v13.47h-1.91V288.92Zm20.95-132.78v9.71h15.31v32.69H244.91v59.61h45.93v46.16h-1.92V260.08H243V196.62h15.31V167.77H243V156.14a4.78,4.78,0,1,1,1.91,0ZM65,29.31a4.79,4.79,0,0,1-5.62,3.76,4.9,4.9,0,0,1-3.76-5.69,4.78,4.78,0,0,1,9.38,0h9.66V13.93H59.3V12H76.52v17.3ZM172.1,60.08a4.79,4.79,0,0,1-5.61,3.76,4.89,4.89,0,0,1-3.76-5.69,4.78,4.78,0,0,1,9.37,0h25V12h47.84v1.92H199V60.08ZM126.18,13.93A4.79,4.79,0,1,1,116.8,12h2a2.87,2.87,0,1,0,5.42,1.91,2.85,2.85,0,0,0,0-1.91h59.48V44.7H166.46V33.06a4.78,4.78,0,1,1,1.91,0v9.71h13.4V13.93Zm0,92.3a4.79,4.79,0,0,1-5.62,3.76,4.88,4.88,0,0,1-3.75-5.68,4.78,4.78,0,0,1,9.37,0h18.27l30.62-30.77h37.31V33.06A4.81,4.81,0,0,1,209,26.39a4.76,4.76,0,0,1,4.3-2.85,4.81,4.81,0,0,1,1,9.52V75.47H175.86l-30.61,30.76Zm26.88,86.64a4.81,4.81,0,0,1,3.42,6.67,4.79,4.79,0,1,1-5.33-6.67V119.3l30.22-30.37h46.32V33.06a4.81,4.81,0,0,1-3.41-6.67,4.75,4.75,0,0,1,4.29-2.85,4.81,4.81,0,0,1,1,9.52V90.85H182.16l-29.1,29.24Zm15.31,30.77a4.81,4.81,0,0,1,3.42,6.67,4.76,4.76,0,0,1-4.3,2.85,4.81,4.81,0,0,1-1-9.52V128L190,104.31H300.5a4.79,4.79,0,0,1,3.73-3.75v2a2.89,2.89,0,0,0-1.75,3.68,2.86,2.86,0,0,0,1.75,1.76v2a4.78,4.78,0,0,1-3.73-3.75H190.77l-22.4,22.51ZM30.6,162.1A4.81,4.81,0,0,1,34,168.77a4.75,4.75,0,0,1-4.29,2.85,4.81,4.81,0,0,1-1-9.52v-3.38l45.92-46.15V58.16h30.62V12h1.91V60.08H76.52v53.28L30.6,159.51ZM61.22,63.83v41.84L15.29,151.82V212h25a4.78,4.78,0,0,1,5.62-3.75,4.89,4.89,0,0,1,3.76,5.68,4.78,4.78,0,0,1-9.38,0H13.38V151L59.3,104.88v-41a4.81,4.81,0,0,1-3.41-6.67,4.75,4.75,0,0,1,4.29-2.85,4.81,4.81,0,0,1,1,9.52ZM45.91,79.22V98l-32.53,32.7V128L44,97.19v-18a4.82,4.82,0,0,1-3.41-6.68,4.76,4.76,0,0,1,4.3-2.85,4.82,4.82,0,0,1,1,9.53ZM25,42.77A4.79,4.79,0,0,1,30.57,39a4.88,4.88,0,0,1,3.76,5.68,4.78,4.78,0,0,1-9.38,0H22.38l-9,9V51l8.22-8.27ZM279.26,60.08a4.8,4.8,0,0,1-5.62,3.76,4.89,4.89,0,0,1-3.75-5.69,4.78,4.78,0,0,1,9.37,0h17.88L304.23,51v2.71l-6.3,6.34ZM264,213.92a4.79,4.79,0,0,1-5.62,3.76,4.88,4.88,0,0,1-3.75-5.68,4.78,4.78,0,0,1,9.37,0h25V143.34L304.23,128v2.72l-13.39,13.46v69.79ZM65,244.69a4.79,4.79,0,0,1-5.62,3.76,4.9,4.9,0,0,1-3.76-5.69,4.78,4.78,0,0,1,9.38,0h9.66V221.05l-22.4-22.51H34.33a4.78,4.78,0,0,1-5.62,3.75A4.88,4.88,0,0,1,25,196.61a4.78,4.78,0,0,1,9.37,0H53l23.52,23.64v24.43Zm143.7,13.46a4.78,4.78,0,0,1,5.62-3.75,4.87,4.87,0,0,1,3.75,5.68,4.78,4.78,0,0,1-9.37,0H105.23V205.65l-37.7-37.88H49.64A4.8,4.8,0,0,1,44,171.53a4.88,4.88,0,0,1-3.75-5.69,4.78,4.78,0,0,1,9.37,0H68.3l38.84,39v53.26ZM65,260.08a4.78,4.78,0,0,1-5.62,3.75,4.89,4.89,0,0,1-3.76-5.68,4.78,4.78,0,0,1,9.38,0h25V213.36l-30.05-30.2H34.33a4.79,4.79,0,0,1-5.62,3.75A4.88,4.88,0,0,1,25,181.23a4.78,4.78,0,0,1,9.37,0H60.65l31.18,31.34v47.51Zm-19-209.81v1.55L22.38,75.47h-9V73.54H21.6L44,51V12h1.92ZM15.29,300.56A4.78,4.78,0,0,1,19,304.31H17a2.85,2.85,0,0,0-3.66-1.76h0v-44.4H30.6v46.16H28.69V260.08H15.29Zm30.62-56.83v60.58H44V244.69H13.38v-1.92H45.91ZM29.64,29.31H13.38V27.39H28.69V12H30.6v17.3Zm261.2-1.92h13.39v1.92H288.92V12h1.92ZM260.22,289.88v14.43h-1.91V290.84h-13.4v13.47H243V288.92h17.22ZM13.38,100.56a4.81,4.81,0,1,1,1,9.52,4.34,4.34,0,0,1-1-.1v-2a2.88,2.88,0,0,0,1.9-5.44,2.82,2.82,0,0,0-1.9,0Zm76.54,173h1.91v30.77H89.92Zm36.26,30.77h-2a2.87,2.87,0,0,0-5.42,0h-2a4.78,4.78,0,0,1,9.38,0ZM19,12a4.82,4.82,0,0,1-3.77,5.67,4.9,4.9,0,0,1-1.87,0v-2A2.88,2.88,0,0,0,17,12ZM300.5,12h2a2.89,2.89,0,0,0,1.75,3.68h0v2A4.8,4.8,0,0,1,300.5,12Zm3.73,288.55v2a2.86,2.86,0,0,0-1.75,1.76h-2A4.78,4.78,0,0,1,304.23,300.56Zm-198-192.4a2.89,2.89,0,1,0-2.87-2.89A2.87,2.87,0,0,0,106.18,108.16Zm0-15.39a2.89,2.89,0,1,0-2.87-2.88A2.87,2.87,0,0,0,106.18,92.77Zm15.31,15.39a2.89,2.89,0,1,0-2.87-2.89A2.87,2.87,0,0,0,121.49,108.16Zm15.31,15.38a2.89,2.89,0,1,0-2.87-2.88A2.88,2.88,0,0,0,136.8,123.54Zm0,15.39a2.89,2.89,0,1,0-2.87-2.89A2.89,2.89,0,0,0,136.8,138.93ZM90.88,169.69A2.89,2.89,0,1,0,88,166.81,2.88,2.88,0,0,0,90.88,169.69Zm15.3,15.39a2.89,2.89,0,1,0-2.87-2.89A2.87,2.87,0,0,0,106.18,185.08Zm30.62,46.15a2.89,2.89,0,1,0-2.87-2.88A2.88,2.88,0,0,0,136.8,231.23Zm-15.31,15.39a2.89,2.89,0,1,0-2.87-2.89A2.88,2.88,0,0,0,121.49,246.62Zm30.62-15.39a2.89,2.89,0,1,0-2.87-2.88A2.88,2.88,0,0,0,152.11,231.23Zm0-30.77a2.89,2.89,0,1,0-2.87-2.88A2.88,2.88,0,0,0,152.11,200.46Zm15.31,30.77a2.89,2.89,0,1,0-2.87-2.88A2.88,2.88,0,0,0,167.42,231.23ZM198,246.62a2.89,2.89,0,1,0-2.87-2.89A2.88,2.88,0,0,0,198,246.62Zm0-15.39a2.89,2.89,0,1,0-2.87-2.88A2.87,2.87,0,0,0,198,231.23Zm-15.31-61.54a2.89,2.89,0,1,0-2.87-2.88A2.87,2.87,0,0,0,182.72,169.69Zm15.31,0a2.89,2.89,0,1,0-2.87-2.88A2.87,2.87,0,0,0,198,169.69ZM213.34,262a2.89,2.89,0,1,0-2.87-2.89A2.88,2.88,0,0,0,213.34,262Zm0,15.38a2.89,2.89,0,1,0-2.87-2.88A2.88,2.88,0,0,0,213.34,277.38Zm16.22,15.25a2.82,2.82,0,0,0,1.82-1.82,2.9,2.9,0,0,0-2.73-3.81h0a2.89,2.89,0,1,0,.91,5.63ZM244,154.31a2.89,2.89,0,1,0-2.87-2.88A2.88,2.88,0,0,0,244,154.31Zm0,30.77a2.89,2.89,0,1,0-2.87-2.89A2.88,2.88,0,0,0,244,185.08Zm15.3-30.77a2.89,2.89,0,1,0-2.87-2.88A2.87,2.87,0,0,0,259.26,154.31Zm15.31-15.38A2.89,2.89,0,1,0,271.7,136,2.88,2.88,0,0,0,274.57,138.93Zm-91.85,0a2.89,2.89,0,1,0-2.87-2.89A2.88,2.88,0,0,0,182.72,138.93Zm0,15.38a2.89,2.89,0,1,0-2.87-2.88A2.87,2.87,0,0,0,182.72,154.31ZM198,123.54a2.89,2.89,0,1,0-2.87-2.88A2.87,2.87,0,0,0,198,123.54Zm91.85,0a2.89,2.89,0,1,0-2.87-2.88A2.87,2.87,0,0,0,289.88,123.54ZM274.57,62a2.88,2.88,0,1,0-2.87-2.88A2.87,2.87,0,0,0,274.57,62Zm15.31-15.38A2.89,2.89,0,1,0,287,43.74,2.87,2.87,0,0,0,289.88,46.62Zm-30.62,0a2.89,2.89,0,1,0-2.87-2.88A2.87,2.87,0,0,0,259.26,46.62Zm0-15.38a2.89,2.89,0,1,0-2.87-2.89A2.88,2.88,0,0,0,259.26,31.24Zm-15.3,0a2.89,2.89,0,1,0-2.87-2.89A2.89,2.89,0,0,0,244,31.24Zm-14.4-.15a2.78,2.78,0,0,0,1.82-1.82,2.89,2.89,0,0,0-2.73-3.8h0a2.88,2.88,0,1,0,.91,5.62Zm-16.22.15a2.89,2.89,0,1,0-2.87-2.89A2.89,2.89,0,0,0,213.34,31.24ZM60.26,46.62a2.89,2.89,0,1,0-2.87-2.88A2.88,2.88,0,0,0,60.26,46.62Zm-30.62,0a2.89,2.89,0,1,0-2.87-2.88A2.87,2.87,0,0,0,29.64,46.62ZM60.26,62a2.88,2.88,0,1,0-2.87-2.88A2.88,2.88,0,0,0,60.26,62ZM45,77.39a2.89,2.89,0,1,0-2.87-2.89A2.87,2.87,0,0,0,45,77.39ZM60.26,31.24a2.89,2.89,0,1,0-2.87-2.89A2.89,2.89,0,0,0,60.26,31.24Zm0,230.76a2.89,2.89,0,1,0-2.87-2.89A2.88,2.88,0,0,0,60.26,262Zm15.31,30.77a2.89,2.89,0,1,0-2.87-2.89A2.88,2.88,0,0,0,75.57,292.77ZM60.26,231.23a2.89,2.89,0,1,0-2.87-2.88A2.88,2.88,0,0,0,60.26,231.23Zm0,15.39a2.89,2.89,0,1,0-2.87-2.89A2.89,2.89,0,0,0,60.26,246.62ZM45,215.85A2.89,2.89,0,1,0,42.08,213,2.87,2.87,0,0,0,45,215.85ZM121.49,46.62a2.89,2.89,0,1,0-2.87-2.88A2.87,2.87,0,0,0,121.49,46.62Zm15.31,0a2.89,2.89,0,1,0-2.87-2.88A2.88,2.88,0,0,0,136.8,46.62ZM121.49,31.24a2.89,2.89,0,1,0-2.87-2.89A2.88,2.88,0,0,0,121.49,31.24Zm30.62,46.15a2.89,2.89,0,1,0-2.87-2.89A2.88,2.88,0,0,0,152.11,77.39ZM167.42,62a2.88,2.88,0,1,0-2.87-2.88A2.88,2.88,0,0,0,167.42,62Zm0-30.76a2.89,2.89,0,1,0-2.87-2.89A2.89,2.89,0,0,0,167.42,31.24ZM274.57,200.46a2.89,2.89,0,1,0-2.87-2.88A2.87,2.87,0,0,0,274.57,200.46Zm-15.31,15.39a2.89,2.89,0,1,0-2.87-2.89A2.87,2.87,0,0,0,259.26,215.85Zm0,15.38a2.89,2.89,0,1,0-2.87-2.88A2.87,2.87,0,0,0,259.26,231.23Zm0,15.39a2.89,2.89,0,1,0-2.87-2.89A2.88,2.88,0,0,0,259.26,246.62ZM29.64,185.08a2.89,2.89,0,1,0-2.87-2.89A2.87,2.87,0,0,0,29.64,185.08Zm0,15.38a2.89,2.89,0,1,0-2.87-2.88A2.87,2.87,0,0,0,29.64,200.46Zm0-30.77a2.89,2.89,0,1,0-2.87-2.88A2.87,2.87,0,0,0,29.64,169.69Zm15.31,0a2.89,2.89,0,1,0-2.87-2.88A2.87,2.87,0,0,0,45,169.69ZM29.64,92.77a2.89,2.89,0,1,0-2.87-2.88A2.87,2.87,0,0,0,29.64,92.77Zm30.62,61.54a2.89,2.89,0,1,0-2.87-2.88A2.88,2.88,0,0,0,60.26,154.31Zm15.31-15.38A2.89,2.89,0,1,0,72.7,136,2.89,2.89,0,0,0,75.57,138.93Z"/></mask></defs><g id="Layer_1" data-name="Layer 1"><g id="Layer_2" data-name="Layer 2"><g class="cls-2"><rect class="cls-3" x="-0.14" y="-0.08" width="309.49" height="312.03"/></g></g></g></svg>